<svg xmlns="http://www.w3.org/2000/svg" width="220" height="65" fill="none"><rect width="220" height="65" fill="#000" rx="4"/><path fill="#fff" d="M46.556 34.938c.013-1.237.35-2.451.98-3.53a7.371 7.371 0 0 1 2.61-2.64 7.66 7.66 0 0 0-2.65-2.3 7.964 7.964 0 0 0-3.436-.913c-2.563-.259-5.04 1.501-6.345 1.501-1.335 0-3.34-1.473-5.5-1.426a8.338 8.338 0 0 0-3.962 1.162 7.967 7.967 0 0 0-2.854 2.894c-2.946 4.97-.749 12.29 2.073 16.316 1.421 1.974 3.072 4.168 5.231 4.095 2.112-.083 2.9-1.315 5.453-1.315 2.524 0 3.263 1.315 5.472 1.268 2.265-.036 3.696-1.981 5.058-3.973A16.015 16.015 0 0 0 51 41.484a7.298 7.298 0 0 1-3.235-2.622 6.992 6.992 0 0 1-1.21-3.926l.001.002ZM43.055 21.465c1.321-1.594 2.225-3.764 1.974-5.965-1.912.082-4.304 1.276-5.681 2.836-1.219 1.374-2.308 3.627-2.026 5.745 2.148.154 4.354-1.046 5.733-2.616Z"/><path fill="#fff" fill-rule="evenodd" d="M72.07 21c0-1.115-.286-1.942-.857-2.518-.572-.575-1.428-.863-2.535-.863-.464 0-.857.036-1.178.072v7.014c.178 0 .5.036 1 .036 1.142 0 1.999-.323 2.641-.971.607-.648.928-1.547.928-2.77Zm1.57-.036c0 1.655-.5 2.95-1.5 3.777-.927.792-2.248 1.187-3.962 1.187-.857 0-1.571-.036-2.178-.108v-9.208c.785-.108 1.642-.18 2.57-.18 1.607 0 2.857.36 3.678 1.079.928.791 1.392 1.942 1.392 3.453ZM80.388 22.474c0-.611-.107-1.15-.393-1.618-.321-.54-.75-.792-1.32-.792-.608 0-1.072.252-1.357.792-.286.467-.429 1.007-.429 1.654 0 .612.143 1.151.429 1.583.32.54.75.791 1.32.791.572 0 1.036-.251 1.357-.79.25-.469.393-1.008.393-1.62Zm1.535-.072c0 1.044-.285 1.907-.857 2.554C80.46 25.64 79.638 26 78.603 26c-.964 0-1.75-.324-2.356-.972-.572-.683-.857-1.51-.857-2.482 0-1.079.285-1.906.892-2.59.607-.647 1.428-1.007 2.428-1.007s1.785.36 2.392 1.007c.536.648.821 1.44.821 2.447ZM93.098 19.093l-2.106 6.763h-1.357l-.857-2.95a11.92 11.92 0 0 1-.535-2.158h-.036c-.143.72-.321 1.475-.535 2.159l-.929 2.95h-1.392l-1.964-6.764h1.535l.75 3.202c.179.755.357 1.475.464 2.158h.036c.107-.54.286-1.259.536-2.122l.963-3.238h1.214l.893 3.166a32.5 32.5 0 0 1 .535 2.194h.036c.107-.683.25-1.403.464-2.194l.822-3.166h1.463ZM100.811 25.856h-1.5V21.97c0-1.187-.464-1.763-1.356-1.763-.429 0-.786.144-1.071.468-.286.36-.393.72-.393 1.187v3.993h-1.5v-4.82c0-.612-.035-1.224-.071-1.943h1.32l.072 1.08h.036c.178-.324.428-.612.785-.828a2.471 2.471 0 0 1 1.322-.396c.642 0 1.142.216 1.57.612.5.503.786 1.259.786 2.23v4.065ZM104.88 25.856h-1.463V16h1.463v9.856ZM112.092 22.474c0-.611-.107-1.15-.393-1.618-.321-.54-.749-.792-1.321-.792-.607 0-1.071.252-1.356.792-.286.467-.429 1.007-.429 1.654 0 .612.143 1.151.429 1.583.321.54.749.791 1.321.791.571 0 1.035-.251 1.356-.79.286-.469.393-1.008.393-1.62Zm1.571-.072c0 1.044-.321 1.907-.893 2.554-.606.684-1.428 1.044-2.463 1.044-.964 0-1.749-.324-2.321-.972-.607-.683-.892-1.51-.892-2.482 0-1.079.285-1.906.892-2.59.607-.647 1.428-1.007 2.428-1.007s1.785.36 2.392 1.007c.571.648.857 1.44.857 2.447ZM119.304 23.518v-1.044c-1.643 0-2.464.432-2.464 1.367 0 .36.107.612.286.792.178.18.428.252.714.252.321 0 .643-.073.928-.288.286-.216.429-.468.5-.792.036-.072.036-.18.036-.287Zm1.535 2.338h-1.321l-.107-.792h-.071c-.429.612-1.107.936-1.928.936-.643 0-1.143-.216-1.536-.612-.357-.36-.535-.827-.535-1.367 0-.827.357-1.475 1.035-1.906.679-.432 1.643-.648 2.892-.612v-.144c0-.899-.464-1.33-1.392-1.33-.679 0-1.25.18-1.75.503l-.285-.971c.607-.396 1.392-.612 2.285-.612 1.749 0 2.606.935 2.606 2.806v2.482c0 .683.036 1.223.107 1.619ZM127.765 23.014v-1.15c0-.18-.035-.324-.071-.468a1.573 1.573 0 0 0-.536-.9c-.25-.251-.607-.36-.964-.36-.571 0-.999.216-1.321.648-.321.468-.464 1.007-.464 1.727 0 .647.143 1.187.429 1.619.321.431.785.647 1.321.647.464 0 .856-.18 1.178-.54.285-.36.428-.755.428-1.223Zm1.535 2.842h-1.321l-.071-1.079h-.036c-.428.791-1.142 1.223-2.142 1.223-.821 0-1.499-.324-2.035-.971-.535-.612-.785-1.44-.785-2.482 0-1.08.285-1.979.857-2.626.571-.648 1.249-.971 2.07-.971.893 0 1.536.323 1.893.935h.035V16h1.464v8.022c0 .647.036 1.259.071 1.834ZM140.476 22.474c0-.611-.142-1.15-.392-1.618-.322-.54-.786-.792-1.357-.792s-1.035.252-1.357.792c-.25.467-.392 1.007-.392 1.654 0 .612.142 1.151.392 1.583.322.54.786.791 1.357.791s1-.251 1.321-.79c.286-.469.428-1.008.428-1.62Zm1.536-.072c0 1.044-.286 1.907-.893 2.554-.607.684-1.428 1.044-2.428 1.044-.999 0-1.785-.324-2.356-.972a3.772 3.772 0 0 1-.893-2.482c0-1.079.322-1.906.929-2.59.607-.647 1.392-1.007 2.427-1.007.964 0 1.75.36 2.357 1.007.571.648.857 1.44.857 2.447ZM150.009 25.856h-1.5V21.97c0-1.187-.428-1.763-1.357-1.763-.428 0-.785.144-1.071.468-.25.36-.392.72-.392 1.187v3.993h-1.5v-4.82c0-.612 0-1.224-.036-1.943h1.286l.071 1.08h.036a2.16 2.16 0 0 1 .785-.828 2.502 2.502 0 0 1 1.357-.396c.607 0 1.142.216 1.535.612.536.503.786 1.259.786 2.23v4.065ZM160.006 20.245h-1.643v3.273c0 .827.286 1.223.893 1.223.25 0 .464 0 .643-.072l.035 1.151c-.285.108-.678.18-1.142.18a1.846 1.846 0 0 1-1.393-.575c-.321-.36-.499-.936-.499-1.799v-3.381h-.964v-1.151h.964V17.87l1.463-.432v1.655h1.643v1.15ZM167.895 25.856h-1.5v-3.849c0-1.187-.464-1.798-1.356-1.798-.679 0-1.143.36-1.429 1.043-.035.144-.035.324-.035.54v4.064h-1.5V16h1.5v4.065c.464-.72 1.142-1.115 2.035-1.115.607 0 1.107.216 1.499.611.536.54.786 1.295.786 2.266v4.03ZM174.572 21.755a1.8 1.8 0 0 0-.286-1.151c-.25-.396-.642-.612-1.178-.612-.5 0-.893.216-1.178.612-.25.324-.393.72-.429 1.151h3.071Zm1.428.396c0 .287-.036.503-.072.683h-4.427c0 .684.215 1.187.643 1.51.357.325.857.505 1.464.505.642 0 1.249-.108 1.785-.324l.25 1.043c-.643.252-1.393.396-2.249.396-1.036 0-1.857-.288-2.464-.936-.571-.611-.857-1.438-.857-2.446 0-1.043.25-1.87.821-2.554.572-.72 1.357-1.079 2.321-1.079.964 0 1.714.36 2.178 1.08.428.575.607 1.294.607 2.122Z" clip-rule="evenodd"/><path fill="#fff" d="M75.962 41.862h-5.984l-1.443 4.3H66l5.673-15.9h2.638l5.673 15.9h-2.582l-1.44-4.3Zm-5.373-1.978h4.752l-2.335-6.981h-.072l-2.345 6.98ZM92.24 40.37c0 3.599-1.906 5.913-4.784 5.913a3.83 3.83 0 0 1-2.088-.487 3.907 3.907 0 0 1-1.515-1.54h-.056V50h-2.351V34.571h2.272v1.923h.047a4.077 4.077 0 0 1 1.547-1.532 4.006 4.006 0 0 1 2.096-.51c2.91-.001 4.831 2.317 4.831 5.919Zm-2.419 0c0-2.353-1.203-3.893-3.029-3.893-1.794 0-3.004 1.571-3.004 3.894 0 2.322 1.209 3.901 3.004 3.901 1.828-.008 3.031-1.54 3.031-3.901h-.002ZM104.85 40.37c0 3.599-1.905 5.912-4.783 5.912a3.831 3.831 0 0 1-2.089-.486 3.908 3.908 0 0 1-1.514-1.54h-.056V50h-2.351V34.57h2.279v1.924h.04a4.187 4.187 0 0 1 1.547-1.532 4.052 4.052 0 0 1 2.104-.51c2.91-.001 4.823 2.317 4.823 5.919Zm-2.418 0c0-2.353-1.196-3.893-3.022-3.893-1.8 0-3.013 1.571-3.013 3.894 0 2.322 1.21 3.901 3.013 3.901 1.829 0 3.025-1.533 3.025-3.901h-.003ZM113.189 41.735c.175 1.572 1.69 2.606 3.754 2.606 1.985 0 3.412-1.037 3.412-2.457 0-1.237-.861-1.97-2.901-2.482l-2.033-.494c-2.883-.702-4.225-2.066-4.225-4.281 0-2.744 2.359-4.627 5.716-4.627 3.323 0 5.604 1.883 5.672 4.627h-2.375c-.143-1.588-1.435-2.545-3.332-2.545-1.897 0-3.188.965-3.188 2.377 0 1.125.829 1.787 2.853 2.29l1.73.43c3.221.774 4.567 2.083 4.567 4.413 0 2.978-2.343 4.834-6.073 4.834-3.484 0-5.835-1.819-5.987-4.691h2.41ZM127.919 31.826v2.744h2.176v1.883h-2.176v6.39c0 .998.43 1.46 1.395 1.46.254-.008.51-.023.772-.055v1.875a6.5 6.5 0 0 1-1.307.104c-2.32 0-3.228-.878-3.228-3.128v-6.645h-1.667V34.57h1.667v-2.744h2.368ZM131.354 40.37c0-3.654 2.128-5.943 5.437-5.943s5.437 2.29 5.437 5.944-2.105 5.935-5.437 5.935c-3.332 0-5.437-2.281-5.437-5.935Zm8.474 0c0-2.504-1.132-3.98-3.038-3.98-1.905 0-3.037 1.483-3.037 3.98 0 2.514 1.132 3.974 3.037 3.974 1.906 0 3.038-1.469 3.038-3.974ZM144.164 34.57h2.239v1.97h.056a2.767 2.767 0 0 1 1.013-1.539 2.694 2.694 0 0 1 1.745-.55c.271-.007.542.022.806.087v2.23a3 3 0 0 0-1.061-.143c-.34-.013-.68.047-.996.176a2.53 2.53 0 0 0-.828.582 2.312 2.312 0 0 0-.518.886c-.107.33-.142.679-.104 1.023v6.888h-2.351l-.001-11.61ZM160.873 42.756c-.319 2.106-2.344 3.55-4.935 3.55-3.339 0-5.404-2.258-5.404-5.88 0-3.621 2.081-6 5.301-6 3.172 0 5.165 2.203 5.165 5.721v.814h-8.091v.144a2.95 2.95 0 0 0 .159 1.26c.135.405.357.776.651 1.085a2.86 2.86 0 0 0 1.036.718c.392.161.813.238 1.236.223a2.607 2.607 0 0 0 2.647-1.633l2.235-.002Zm-7.955-3.462h5.731a2.697 2.697 0 0 0-.167-1.126 2.899 2.899 0 0 0-.598-.965 2.787 2.787 0 0 0-2.041-.853 2.889 2.889 0 0 0-1.124.223 2.978 2.978 0 0 0-1.581 1.595c-.146.357-.219.74-.215 1.126h-.005Z"/></svg>