<svg xmlns="http://www.w3.org/2000/svg" width="220" height="65" fill="none"><rect width="220" height="65" fill="#000" rx="4"/><path fill="#EA4335" d="m36.974 32.258-14.34 14.5c0 .003 0 .003.003.007.44 1.575 1.947 2.735 3.738 2.735.718 0 1.39-.185 1.966-.51l.046-.025 16.144-8.873-7.556-7.834Z"/><path fill="#FBBC04" d="m51.484 29.792-.016-.01-6.968-3.848-7.85 6.655 7.877 7.503 6.934-3.812c1.214-.622 2.039-1.843 2.039-3.25 0-1.397-.814-2.612-2.016-3.238Z"/><path fill="#4285F4" d="M22.634 19.242a3.382 3.382 0 0 0-.134.95v25.617c0 .327.046.647.134.949l14.833-14.129-14.833-13.387Z"/><path fill="#34A853" d="m37.081 33 7.423-7.07-16.124-8.903a4.039 4.039 0 0 0-2.005-.527c-1.79 0-3.303 1.16-3.742 2.738v.004L37.081 33Z"/><path fill="#fff" d="M71.553 20.927h3.702v.689a6.48 6.48 0 0 1-.327 2.065c-.218.652-.69 1.16-1.415 1.594-.29.145-.581.29-.908.363-.326.108-.653.145-.98.18-.109.037-.217.037-.326.037h-.581a6.035 6.035 0 0 1-2.25-.543c-.726-.363-1.27-.834-1.67-1.486-.181-.362-.362-.725-.508-1.087-.109-.362-.217-.76-.254-1.123v-.29c0-.109-.036-.181-.036-.29 0-.87.254-1.703.69-2.5a4.233 4.233 0 0 1 1.923-1.811c.218-.11.472-.218.69-.29.254-.073.508-.145.725-.181.146-.037.29-.037.436-.073h.436c.653 0 1.306.145 1.96.399.616.29 1.16.688 1.633 1.195l-1.09.834a3.78 3.78 0 0 0-1.124-.797 2.897 2.897 0 0 0-1.234-.254h-.436c-.109.036-.254.036-.4.072-.035 0-.072 0-.108.037h-.109c-.798.253-1.415.688-1.814 1.304A3.702 3.702 0 0 0 67.56 21c0 .073.036.109.036.145v.29a.273.273 0 0 1 .036.145v.145c.145.87.545 1.558 1.198 2.065.653.507 1.379.76 2.214.76h.217c.11 0 .182-.035.254-.035h.11c.036-.037.036-.037.072-.037h.145c.036-.036.109-.036.145-.036.581-.109 1.016-.362 1.343-.76.327-.4.472-.87.472-1.414v-.072h-2.25v-1.269Zm5.625 4.747v-9.312h5.19v1.305h-3.666v2.318h3.666v1.341h-3.666v2.971h3.666v1.377h-5.19Zm10.743-8.007v8.007h-1.525v-8.007h-2.468v-1.305h6.46v1.305h-2.467Zm8.202 8.007v-9.312h1.524v9.312h-1.524Zm7.113-8.007v8.007h-1.524v-8.007h-2.468v-1.305h6.424v1.305h-2.432Zm17.275 5.217c-.362.942-1.016 1.667-1.887 2.21a5.236 5.236 0 0 1-2.722.761h-.217c-.109 0-.182 0-.255-.036-.326 0-.616-.073-.943-.145a6.724 6.724 0 0 1-.907-.362 5.13 5.13 0 0 1-1.924-1.812 4.815 4.815 0 0 1-.69-2.5v-.435c.037-.145.037-.253.073-.398a2.39 2.39 0 0 1 .218-.725c.072-.254.181-.507.29-.725a4.871 4.871 0 0 1 1.851-1.884 5.308 5.308 0 0 1 2.541-.652c.145 0 .29 0 .471.036.146 0 .291.037.436.073.327.036.653.145.944.254.326.108.616.253.871.434.725.435 1.233 1.051 1.633 1.776.399.76.58 1.521.58 2.319 0 .326-.036.615-.109.942-.036.29-.145.58-.254.87Zm-4.572 1.594c.943 0 1.742-.326 2.395-1.014.653-.689.98-1.522.98-2.428 0-.942-.327-1.739-1.016-2.427-.654-.689-1.452-1.051-2.396-1.051h-.326c-.871.109-1.597.507-2.178 1.196-.581.688-.871 1.485-.871 2.319v.144c0 .073 0 .11.036.182v.145c0 .036.037.072.037.072v.072c.145.797.544 1.45 1.197 1.993a3.147 3.147 0 0 0 2.142.797Zm6.786 1.196V16l5.88 5.652c.036.073.109.109.145.145a.482.482 0 0 0 .109.145l.181.181c.073.073.109.145.182.218l.217.217c.037.072.109.181.182.254v-6.45H131V26l-5.988-5.76c-.182-.146-.327-.327-.472-.508l-.436-.544v6.486h-1.379ZM98.107 35.6a5.011 5.011 0 0 0-3.854 1.841 4.997 4.997 0 0 0-1.028 4.142 5 5 0 0 0 2.365 3.251 5.011 5.011 0 0 0 7.534-4.151 4.996 4.996 0 0 0-.355-2.023 4.892 4.892 0 0 0-1.093-1.627 4.788 4.788 0 0 0-1.638-1.083 4.926 4.926 0 0 0-1.931-.35Zm0 8.026a3.04 3.04 0 0 1-3.11-2.142 3.029 3.029 0 0 1 1.385-3.51 3.04 3.04 0 0 1 2.621-.2 3.05 3.05 0 0 1 1.924 2.816c.021.388-.037.776-.171 1.14a2.959 2.959 0 0 1-.595.977 2.932 2.932 0 0 1-2.054.92ZM87.144 35.6a5.006 5.006 0 0 0-4.614 3.092 4.99 4.99 0 0 0 1.094 5.44 5.004 5.004 0 0 0 8.532-3.543 5.067 5.067 0 0 0-.358-1.928 4.996 4.996 0 0 0-2.73-2.71 4.926 4.926 0 0 0-1.932-.352h.008Zm0 8.026a3.033 3.033 0 0 1-3.227-3.476 3.031 3.031 0 0 1 2.323-2.507 3.108 3.108 0 0 1 1.785.13 3.043 3.043 0 0 1 1.93 2.817c.022.388-.036.776-.17 1.14a2.943 2.943 0 0 1-.596.977 2.932 2.932 0 0 1-2.054.917l.01.002Zm-13.056-6.488v2.117h5.086A4.439 4.439 0 0 1 78 41.925a5.386 5.386 0 0 1-1.793 1.188 5.14 5.14 0 0 1-2.127.358 5.615 5.615 0 0 1-2.16-.432 5.439 5.439 0 0 1-1.834-1.22 5.58 5.58 0 0 1-1.23-1.833 5.703 5.703 0 0 1 0-4.314 5.58 5.58 0 0 1 1.23-1.832 5.444 5.444 0 0 1 1.835-1.222 5.623 5.623 0 0 1 2.16-.43 5.408 5.408 0 0 1 3.846 1.513l1.5-1.498a7.445 7.445 0 0 0-5.338-2.197 7.732 7.732 0 0 0-3.065.504 7.762 7.762 0 0 0 0 14.53c.977.372 2.02.54 3.065.497.959.056 1.92-.088 2.82-.423a7.01 7.01 0 0 0 2.396-1.531 6.869 6.869 0 0 0 2.045-5.177 6.54 6.54 0 0 0-.114-1.33l-7.148.062Zm53.335 1.644a4.63 4.63 0 0 0-8.047-1.308 4.611 4.611 0 0 0-.942 3.112 4.904 4.904 0 0 0 3.048 4.64 5.217 5.217 0 0 0 4.288-.219 4.94 4.94 0 0 0 1.8-1.627l-1.704-1.181c-.258.422-.62.773-1.051 1.017a2.782 2.782 0 0 1-1.41.367 2.534 2.534 0 0 1-2.429-1.514l6.7-2.76-.253-.527Zm-6.822 1.669a2.84 2.84 0 0 1 .139-1.075c.122-.343.311-.658.555-.928a2.682 2.682 0 0 1 1.915-.912c.38-.023.76.064 1.091.252.33.188.596.469.767.807l-4.467 1.855Zm-5.444 4.843h2.2V30.601h-2.2v14.693Zm-3.602-8.58h-.082a3.54 3.54 0 0 0-2.632-1.18 5.013 5.013 0 0 0-4.77 5.007 5.012 5.012 0 0 0 4.77 5.006 3.426 3.426 0 0 0 2.633-1.18h.073v.715c0 1.922-1.027 2.939-2.673 2.939a2.71 2.71 0 0 1-1.521-.505 2.74 2.74 0 0 1-.995-1.27l-1.915.798c.362.88.977 1.63 1.769 2.158a4.72 4.72 0 0 0 2.662.798c2.584 0 4.711-1.514 4.711-5.21v-8.897h-2.022l-.008.822Zm-2.519 6.911a3.045 3.045 0 0 1 0-6.066c.377.017.746.111 1.084.277a2.79 2.79 0 0 1 1.451 1.644c.123.355.171.733.139 1.107.034.38-.01.762-.13 1.124a2.833 2.833 0 0 1-1.459 1.644 2.836 2.836 0 0 1-1.093.269l.008.001Zm28.697-13.024h-5.257v14.693h2.2v-5.568h3.073a4.562 4.562 0 0 0 3.439-1.221 4.49 4.49 0 0 0 1.459-3.343c0-.627-.128-1.247-.375-1.824a4.587 4.587 0 0 0-2.674-2.482 4.474 4.474 0 0 0-1.85-.253l-.015-.002Zm0 7.057h-3.072v-5.014h3.122c.333 0 .663.066.97.196.306.123.584.309.815.545a2.482 2.482 0 0 1 .741 1.782c-.001.332-.066.661-.19.969a2.63 2.63 0 0 1-1.369 1.368 2.636 2.636 0 0 1-.97.19l-.047-.036Zm13.579-2.116a4.11 4.11 0 0 0-3.921 2.246l1.956.815c.188-.359.481-.652.84-.84a3.532 3.532 0 0 1 1.989-.178 2.115 2.115 0 0 1 1.522 1.824v.155a4.792 4.792 0 0 0-2.291-.563c-2.111 0-4.238 1.172-4.238 3.298.017.454.128.9.326 1.31a3.404 3.404 0 0 0 3.318 1.93 3.14 3.14 0 0 0 1.606-.327c.5-.244.922-.622 1.223-1.09h.073v1.18h2.119v-5.657c0-2.58-1.956-4.07-4.469-4.07l-.053-.033Zm-.277 8.05c-.717 0-1.711-.365-1.711-1.245 0-1.18 1.246-1.563 2.347-1.563a4 4 0 0 1 2.006.488 2.652 2.652 0 0 1-2.576 2.352l-.066-.032Zm12.519-7.7-2.518 6.373h-.073l-2.616-6.373h-2.355l3.921 8.913-2.234 4.95h2.298L166 35.889l-2.446.003Zm-19.788 9.402h2.2V30.601h-2.2v14.693Z"/></svg>