<?xml version="1.0" encoding="UTF-8"?>
<!DOCTYPE svg PUBLIC "-//W3C//DTD SVG 1.1//EN" "http://www.w3.org/Graphics/SVG/1.1/DTD/svg11.dtd">
<!-- Creator: CorelDRAW X7 -->
<svg xmlns="http://www.w3.org/2000/svg" xml:space="preserve" width="194.291mm" height="194.286mm" version="1.1" style="shape-rendering:geometricPrecision; text-rendering:geometricPrecision; image-rendering:optimizeQuality; fill-rule:evenodd; clip-rule:evenodd"
viewBox="0 0 19427 19427"
 xmlns:xlink="http://www.w3.org/1999/xlink">
 <defs>
  <style type="text/css">
   <![CDATA[
    .fil0 {fill:#12B677}
   ]]>
  </style>
 </defs>
 <g id="Слой_x0020_1">
  <metadata id="CorelCorpID_0Corel-Layer"/>
  <g id="_720754884496">
   <path class="fil0" d="M9713 19427c-2594,0 -5033,-1011 -6868,-2845 -1835,-1835 -2845,-4274 -2845,-6869 0,-2594 1010,-5034 2845,-6868 1835,-1834 4274,-2845 6869,-2845 2594,0 5034,1010 6868,2845 1835,1834 2845,4274 2845,6869 0,2595 -1011,5033 -2845,6868 -1835,1834 -4274,2845 -6869,2845zm1 -18431c-2329,0 -4518,907 -6165,2553 -1646,1647 -2553,3836 -2553,6164 0,2329 907,4518 2553,6164 1647,1647 3836,2553 6164,2553 2329,0 4518,-906 6165,-2553 1646,-1646 2553,-3835 2553,-6163 0,-2329 -907,-4518 -2553,-6165 -1647,-1646 -3836,-2553 -6164,-2553z"/>
   <g>
    <path class="fil0" d="M8618 12404c-128,0 -255,-49 -352,-146 -195,-195 -195,-510 0,-705l4383 -4384c195,-194 510,-194 705,0 195,195 195,510 0,705l-4384 4384c-97,97 -225,146 -352,146z"/>
    <path class="fil0" d="M8617 12404c-127,0 -255,-49 -352,-146l-2192 -2192c-194,-194 -194,-509 0,-704 195,-195 510,-195 704,0l2192 2192c195,194 195,509 0,704 -97,97 -225,146 -352,146z"/>
   </g>
  </g>
 </g>
</svg>
